<?xml version="1.0" encoding="utf-8"?>
<!-- Generator: Adobe Illustrator 16.0.0, SVG Export Plug-In . SVG Version: 6.00 Build 0)  -->
<!DOCTYPE svg PUBLIC "-//W3C//DTD SVG 1.0//EN" "http://www.w3.org/TR/2001/REC-SVG-20010904/DTD/svg10.dtd">
<svg version="1.0" id="Layer_1" xmlns="http://www.w3.org/2000/svg" xmlns:xlink="http://www.w3.org/1999/xlink" x="0px" y="0px"
	 width="368.504px" height="57.884px" viewBox="0 0 368.504 57.884" enable-background="new 0 0 368.504 57.884"
	 xml:space="preserve">
<path d="M27.779,14.175L14.173,43.709h3.211l2.432-5.271h16.57l2.42,5.271h3.109L28.484,14.175H27.779z M21.133,35.586l6.988-15.137
	l6.955,15.137H21.133z M64.843,27.023c2.495,1.889,4.203,3.567,5.131,5.041c0.926,1.473,1.389,2.951,1.389,4.438
	c0,2.142-0.793,4.002-2.378,5.581c-1.587,1.58-3.516,2.37-5.787,2.37c-1.748,0-3.335-0.479-4.756-1.436
	c-1.424-0.958-2.734-2.562-3.935-4.81l2.446-1.506c1.724,3.254,3.714,4.879,5.973,4.879c0.966,0,1.871-0.231,2.72-0.693
	c0.85-0.462,1.494-1.081,1.938-1.856c0.444-0.776,0.666-1.6,0.666-2.471c0-0.99-0.326-1.96-0.978-2.909
	c-0.903-1.313-2.545-2.893-4.936-4.739c-2.401-1.86-3.895-3.206-4.484-4.036c-1.017-1.393-1.526-2.898-1.526-4.518
	c0-1.284,0.3-2.456,0.9-3.514c0.601-1.058,1.445-1.891,2.537-2.5c1.089-0.609,2.273-0.914,3.553-0.914
	c1.356,0,2.627,0.346,3.807,1.034c1.182,0.69,2.432,1.96,3.751,3.805l-2.351,1.829c-1.084-1.474-2.006-2.444-2.771-2.913
	c-0.763-0.468-1.594-0.703-2.494-0.703c-1.164,0-2.113,0.362-2.851,1.086c-0.738,0.722-1.105,1.612-1.105,2.669
	c0,0.644,0.13,1.266,0.391,1.867c0.26,0.603,0.738,1.259,1.431,1.969C61.501,24.448,62.742,25.431,64.843,27.023 M85.695,14.175
	h15.781v2.891h-6.422v26.644h-2.937V17.065h-6.422V14.175z M130.628,29.041c1.371-0.622,2.425-1.545,3.162-2.764
	c0.738-1.22,1.108-2.635,1.108-4.242c0-1.931-0.535-3.556-1.606-4.875c-1.07-1.32-2.462-2.182-4.17-2.584
	c-1.135-0.268-3.304-0.401-6.501-0.401h-5.736v29.536h2.878V29.995h1.626l10.357,13.716h3.56l-10.357-13.716
	C127.366,29.982,129.26,29.664,130.628,29.041 M119.764,27.104V17.065h5.078c1.976,0,3.388,0.174,4.237,0.521
	c0.849,0.349,1.536,0.928,2.059,1.737c0.521,0.81,0.784,1.71,0.784,2.7c0,1.019-0.258,1.938-0.775,2.761
	c-0.516,0.824-1.235,1.423-2.157,1.799c-0.921,0.374-2.343,0.561-4.266,0.561L119.764,27.104z M165.882,13.431
	c-2.69,0-5.191,0.687-7.504,2.059c-2.311,1.373-4.138,3.27-5.476,5.692s-2.008,5.054-2.008,7.89c0,4.258,1.468,7.886,4.407,10.884
	s6.543,4.498,10.815,4.498c4.219,0,7.793-1.507,10.728-4.518c2.932-3.013,4.398-6.68,4.398-11.004c0-4.364-1.471-8.038-4.41-11.022
	C173.894,14.924,170.245,13.431,165.882,13.431 M176.667,35.353c-1.066,1.929-2.551,3.45-4.452,4.561
	c-1.903,1.112-3.972,1.668-6.206,1.668c-3.349,0-6.208-1.209-8.582-3.628c-2.371-2.417-3.558-5.381-3.558-8.891
	c0-2.371,0.535-4.521,1.608-6.45c1.073-1.931,2.562-3.463,4.47-4.602c1.911-1.14,3.931-1.708,6.062-1.708
	c2.168,0,4.221,0.568,6.157,1.708c1.934,1.139,3.435,2.656,4.5,4.551c1.065,1.896,1.598,4.016,1.598,6.36
	C178.266,31.28,177.733,33.423,176.667,35.353 M200.998,40.856h26.655v2.853H198.12V14.175h2.878V40.856z M209.701,32.155h17.953
	v2.852h-20.831V14.175h2.878V32.155z M257.031,13.431c-2.69,0-5.191,0.687-7.502,2.059c-2.313,1.373-4.137,3.27-5.478,5.692
	c-1.338,2.423-2.008,5.054-2.008,7.89c0,4.258,1.471,7.886,4.41,10.884s6.543,4.498,10.813,4.498c4.219,0,7.793-1.507,10.728-4.518
	c2.932-3.013,4.398-6.68,4.398-11.004c0-4.364-1.468-8.038-4.407-11.022C265.045,14.924,261.394,13.431,257.031,13.431
	 M267.816,35.353c-1.068,1.929-2.548,3.45-4.451,4.561c-1.901,1.112-3.97,1.668-6.206,1.668c-3.346,0-6.206-1.209-8.58-3.628
	c-2.374-2.417-3.56-5.381-3.56-8.891c0-2.371,0.538-4.521,1.608-6.45c1.073-1.931,2.564-3.463,4.472-4.602
	c1.908-1.14,3.928-1.708,6.06-1.708c2.171,0,4.223,0.568,6.157,1.708c1.936,1.139,3.432,2.656,4.5,4.551
	c1.066,1.896,1.599,4.016,1.599,6.36C269.415,31.28,268.882,33.423,267.816,35.353 M306.342,29.555h12.415
	c-0.026,4.564-1.348,8.188-3.965,10.871c-2.618,2.685-6.118,4.027-10.504,4.027c-5.327,0-9.543-1.86-12.649-5.583
	c-2.387-2.864-3.581-6.177-3.581-9.938c0-2.798,0.684-5.4,2.055-7.811c1.371-2.409,3.25-4.293,5.638-5.651
	c2.39-1.358,5.091-2.039,8.107-2.039c2.441,0,4.738,0.453,6.893,1.355c2.152,0.904,4.254,2.354,6.304,4.347l-2.231,2.169
	c-1.605-1.619-3.365-2.847-5.278-3.685c-1.913-0.835-3.774-1.254-5.589-1.254c-2.259,0-4.409,0.568-6.453,1.706
	c-2.041,1.139-3.625,2.68-4.747,4.628c-1.121,1.947-1.685,4.006-1.685,6.174c0,2.223,0.582,4.334,1.743,6.336
	c1.163,2.001,2.767,3.572,4.816,4.719c2.05,1.144,4.296,1.716,6.737,1.716c2.962,0,5.468-0.857,7.519-2.57
	c2.047-1.714,3.262-3.936,3.642-6.666h-9.185V29.555z M354.331,14.175l-9.124,15.419v14.115h-2.839V29.594l-9.301-15.419h3.312
	l7.369,12.18l7.255-12.18H354.331z"/>
</svg>
